<?xml version="1.0" standalone="no"?>
<svg xmlns="http://www.w3.org/2000/svg" version="1.2" baseProfile="tiny" width="225" height="225" viewBox="0 0 225 225">
<rect x="0" y="0" width="225" height="225" id="0" fill="rgb(67,62,50)" fill-opacity="1" />
<circle cx="145" cy="143" r="52" id="1" fill="rgb(207,186,177)" fill-opacity="1" />
<circle cx="76" cy="147" r="41" id="2" fill="rgb(211,167,149)" fill-opacity="1" />
<circle cx="168" cy="26" r="70" id="3" fill="rgb(1,2,0)" fill-opacity="1" />
<circle cx="144" cy="224" r="39" id="4" fill="rgb(2,2,2)" fill-opacity="1" />
<circle cx="6" cy="211" r="55" id="5" fill="rgb(1,0,0)" fill-opacity="1" />
<circle cx="0" cy="107" r="42" id="6" fill="rgb(1,1,1)" fill-opacity="1" />
<circle cx="15" cy="9" r="46" id="7" fill="rgb(3,5,1)" fill-opacity="1" />
<circle cx="214" cy="203" r="36" id="8" fill="rgb(0,0,0)" fill-opacity="1" />
<circle cx="170" cy="154" r="31" id="9" fill="rgb(215,218,221)" fill-opacity="1" />
<circle cx="84" cy="224" r="38" id="10" fill="rgb(0,0,0)" fill-opacity="1" />
<circle cx="45" cy="63" r="13" id="11" fill="rgb(211,173,64)" fill-opacity="1" />
<circle cx="185" cy="120" r="19" id="12" fill="rgb(183,142,123)" fill-opacity="1" />
<circle cx="106" cy="168" r="19" id="13" fill="rgb(225,229,233)" fill-opacity="1" />
<circle cx="120" cy="75" r="24" id="14" fill="rgb(1,1,1)" fill-opacity="1" />
<circle cx="89" cy="100" r="14" id="15" fill="rgb(15,16,9)" fill-opacity="1" />
<circle cx="221" cy="83" r="32" id="16" fill="rgb(0,0,0)" fill-opacity="1" />
<circle cx="78" cy="44" r="29" id="17" fill="rgb(66,109,32)" fill-opacity="1" />
<circle cx="24" cy="64" r="9" id="18" fill="rgb(234,187,71)" fill-opacity="1" />
<circle cx="141" cy="163" r="24" id="19" fill="rgb(225,232,237)" fill-opacity="1" />
<circle cx="186" cy="155" r="20" id="20" fill="rgb(220,227,232)" fill-opacity="1" />
<circle cx="11" cy="156" r="25" id="21" fill="rgb(0,0,0)" fill-opacity="1" />
<circle cx="49" cy="145" r="16" id="22" fill="rgb(194,109,84)" fill-opacity="1" />
<circle cx="51" cy="169" r="9" id="23" fill="rgb(201,123,96)" fill-opacity="1" />
<circle cx="39" cy="87" r="15" id="24" fill="rgb(3,3,1)" fill-opacity="1" />
<circle cx="112" cy="125" r="22" id="25" fill="rgb(217,159,131)" fill-opacity="1" />
<circle cx="148" cy="116" r="24" id="26" fill="rgb(216,162,137)" fill-opacity="1" />
<circle cx="169" cy="201" r="15" id="27" fill="rgb(0,0,0)" fill-opacity="1" />
<circle cx="81" cy="0" r="21" id="28" fill="rgb(4,8,2)" fill-opacity="1" />
<circle cx="206" cy="120" r="8" id="29" fill="rgb(190,141,117)" fill-opacity="1" />
<circle cx="193" cy="131" r="6" id="30" fill="rgb(54,59,62)" fill-opacity="1" />
<circle cx="50" cy="125" r="12" id="31" fill="rgb(219,196,184)" fill-opacity="1" />
<circle cx="89" cy="174" r="13" id="32" fill="rgb(225,231,236)" fill-opacity="1" />
<circle cx="175" cy="110" r="13" id="33" fill="rgb(217,158,130)" fill-opacity="1" />
<circle cx="66" cy="41" r="22" id="34" fill="rgb(63,105,32)" fill-opacity="1" />
<circle cx="221" cy="172" r="21" id="35" fill="rgb(1,1,1)" fill-opacity="1" />
<circle cx="63" cy="65" r="6" id="36" fill="rgb(222,189,69)" fill-opacity="1" />
<circle cx="53" cy="64" r="8" id="37" fill="rgb(247,200,75)" fill-opacity="1" />
<circle cx="129" cy="199" r="13" id="38" fill="rgb(1,1,1)" fill-opacity="1" />
<circle cx="60" cy="139" r="13" id="39" fill="rgb(201,122,95)" fill-opacity="1" />
<circle cx="66" cy="117" r="7" id="40" fill="rgb(241,239,239)" fill-opacity="1" />
<circle cx="66" cy="93" r="15" id="41" fill="rgb(59,109,27)" fill-opacity="1" />
<circle cx="201" cy="82" r="23" id="42" fill="rgb(0,0,0)" fill-opacity="1" />
<circle cx="158" cy="152" r="21" id="43" fill="rgb(225,232,237)" fill-opacity="1" />
<circle cx="101" cy="91" r="14" id="44" fill="rgb(0,0,0)" fill-opacity="1" />
<circle cx="218" cy="186" r="27" id="45" fill="rgb(0,0,0)" fill-opacity="1" />
<circle cx="199" cy="203" r="28" id="46" fill="rgb(0,0,0)" fill-opacity="1" />
<circle cx="114" cy="203" r="17" id="47" fill="rgb(1,1,1)" fill-opacity="1" />
<circle cx="30" cy="45" r="13" id="48" fill="rgb(3,3,1)" fill-opacity="1" />
<circle cx="16" cy="59" r="5" id="49" fill="rgb(249,199,74)" fill-opacity="1" />
<circle cx="224" cy="145" r="11" id="50" fill="rgb(11,13,14)" fill-opacity="1" />
<circle cx="36" cy="65" r="9" id="51" fill="rgb(247,197,74)" fill-opacity="1" />
<circle cx="155" cy="160" r="27" id="52" fill="rgb(225,232,237)" fill-opacity="1" />
<circle cx="85" cy="139" r="21" id="53" fill="rgb(217,157,129)" fill-opacity="1" />
<circle cx="14" cy="101" r="31" id="54" fill="rgb(0,0,0)" fill-opacity="1" />
<circle cx="178" cy="142" r="10" id="55" fill="rgb(225,232,237)" fill-opacity="1" />
<circle cx="135" cy="79" r="16" id="56" fill="rgb(0,0,0)" fill-opacity="1" />
<circle cx="75" cy="178" r="9" id="57" fill="rgb(224,225,228)" fill-opacity="1" />
<circle cx="39" cy="128" r="3" id="58" fill="rgb(237,239,240)" fill-opacity="1" />
<circle cx="74" cy="113" r="5" id="59" fill="rgb(244,246,247)" fill-opacity="1" />
<circle cx="53" cy="121" r="7" id="60" fill="rgb(243,245,246)" fill-opacity="1" />
<circle cx="158" cy="112" r="19" id="61" fill="rgb(217,158,130)" fill-opacity="1" />
<circle cx="56" cy="218" r="32" id="62" fill="rgb(0,0,0)" fill-opacity="1" />
<circle cx="1" cy="63" r="10" id="63" fill="rgb(0,0,0)" fill-opacity="1" />
<circle cx="71" cy="81" r="14" id="64" fill="rgb(62,114,29)" fill-opacity="1" />
<circle cx="60" cy="104" r="8" id="65" fill="rgb(62,114,29)" fill-opacity="1" />
<circle cx="126" cy="165" r="22" id="66" fill="rgb(225,232,237)" fill-opacity="1" />
<circle cx="216" cy="123" r="3" id="67" fill="rgb(203,149,123)" fill-opacity="1" />
<circle cx="184" cy="129" r="4" id="68" fill="rgb(72,67,65)" fill-opacity="1" />
<circle cx="51" cy="142" r="13" id="69" fill="rgb(195,108,81)" fill-opacity="1" />
<circle cx="205" cy="131" r="7" id="70" fill="rgb(46,50,53)" fill-opacity="1" />
<circle cx="48" cy="111" r="5" id="71" fill="rgb(64,114,31)" fill-opacity="1" />
<circle cx="53" cy="106" r="8" id="72" fill="rgb(60,110,28)" fill-opacity="1" />
<circle cx="58" cy="0" r="20" id="73" fill="rgb(0,0,0)" fill-opacity="1" />
<circle cx="50" cy="81" r="8" id="74" fill="rgb(7,12,4)" fill-opacity="1" />
<circle cx="64" cy="38" r="9" id="75" fill="rgb(45,59,47)" fill-opacity="1" />
<circle cx="128" cy="114" r="18" id="76" fill="rgb(216,157,129)" fill-opacity="1" />
<circle cx="181" cy="114" r="13" id="77" fill="rgb(217,158,130)" fill-opacity="1" />
<circle cx="199" cy="117" r="9" id="78" fill="rgb(214,156,128)" fill-opacity="1" />
<circle cx="108" cy="0" r="25" id="79" fill="rgb(0,0,0)" fill-opacity="1" />
<circle cx="101" cy="87" r="16" id="80" fill="rgb(0,1,0)" fill-opacity="1" />
<circle cx="57" cy="176" r="8" id="81" fill="rgb(211,146,118)" fill-opacity="1" />
<circle cx="99" cy="175" r="12" id="82" fill="rgb(225,232,237)" fill-opacity="1" />
<circle cx="223" cy="118" r="5" id="83" fill="rgb(1,1,1)" fill-opacity="1" />
<circle cx="36" cy="52" r="5" id="84" fill="rgb(3,3,2)" fill-opacity="1" />
<circle cx="63" cy="166" r="11" id="85" fill="rgb(217,157,129)" fill-opacity="1" />
<circle cx="103" cy="128" r="19" id="86" fill="rgb(217,158,130)" fill-opacity="1" />
<circle cx="79" cy="24" r="8" id="87" fill="rgb(61,111,28)" fill-opacity="1" />
<circle cx="46" cy="158" r="9" id="88" fill="rgb(193,105,79)" fill-opacity="1" />
<circle cx="211" cy="135" r="10" id="89" fill="rgb(40,46,50)" fill-opacity="1" />
<circle cx="78" cy="137" r="18" id="90" fill="rgb(214,151,123)" fill-opacity="1" />
<circle cx="71" cy="154" r="13" id="91" fill="rgb(217,158,130)" fill-opacity="1" />
<circle cx="176" cy="130" r="3" id="92" fill="rgb(80,79,80)" fill-opacity="1" />
<circle cx="176" cy="203" r="18" id="93" fill="rgb(0,0,0)" fill-opacity="1" />
<circle cx="181" cy="130" r="3" id="94" fill="rgb(45,51,55)" fill-opacity="1" />
<circle cx="20" cy="134" r="14" id="95" fill="rgb(0,0,0)" fill-opacity="1" />
<circle cx="85" cy="109" r="6" id="96" fill="rgb(3,3,2)" fill-opacity="1" />
<circle cx="64" cy="132" r="7" id="97" fill="rgb(198,115,88)" fill-opacity="1" />
<circle cx="209" cy="194" r="26" id="98" fill="rgb(0,0,0)" fill-opacity="1" />
<circle cx="204" cy="37" r="65" id="99" fill="rgb(0,0,0)" fill-opacity="1" />
<circle cx="97" cy="216" r="29" id="100" fill="rgb(0,0,0)" fill-opacity="1" />
<circle cx="76" cy="106" r="2" id="101" fill="rgb(194,206,191)" fill-opacity="1" />
<circle cx="85" cy="76" r="5" id="102" fill="rgb(60,111,27)" fill-opacity="1" />
<circle cx="156" cy="207" r="21" id="103" fill="rgb(0,0,0)" fill-opacity="1" />
<circle cx="42" cy="124" r="5" id="104" fill="rgb(237,240,242)" fill-opacity="1" />
<circle cx="190" cy="158" r="13" id="105" fill="rgb(225,232,237)" fill-opacity="1" />
<circle cx="141" cy="63" r="31" id="106" fill="rgb(0,0,0)" fill-opacity="1" />
<circle cx="15" cy="63" r="3" id="107" fill="rgb(254,203,76)" fill-opacity="1" />
<circle cx="224" cy="105" r="16" id="108" fill="rgb(0,0,0)" fill-opacity="1" />
<circle cx="58" cy="70" r="2" id="109" fill="rgb(242,199,74)" fill-opacity="1" />
<circle cx="190" cy="137" r="2" id="110" fill="rgb(221,228,233)" fill-opacity="1" />
<circle cx="116" cy="118" r="17" id="111" fill="rgb(217,158,130)" fill-opacity="1" />
<circle cx="37" cy="3" r="27" id="112" fill="rgb(0,0,0)" fill-opacity="1" />
<circle cx="32" cy="92" r="19" id="113" fill="rgb(0,0,0)" fill-opacity="1" />
<circle cx="172" cy="164" r="20" id="114" fill="rgb(225,232,237)" fill-opacity="1" />
<circle cx="169" cy="130" r="2" id="115" fill="rgb(93,85,81)" fill-opacity="1" />
<circle cx="30" cy="122" r="8" id="116" fill="rgb(1,1,1)" fill-opacity="1" />
<circle cx="164" cy="112" r="18" id="117" fill="rgb(217,158,130)" fill-opacity="1" />
<circle cx="181" cy="150" r="17" id="118" fill="rgb(225,232,237)" fill-opacity="1" />
<circle cx="60" cy="119" r="6" id="119" fill="rgb(246,249,250)" fill-opacity="1" />
<circle cx="54" cy="55" r="3" id="120" fill="rgb(71,118,31)" fill-opacity="1" />
<circle cx="44" cy="113" r="4" id="121" fill="rgb(55,99,27)" fill-opacity="1" />
<circle cx="64" cy="96" r="13" id="122" fill="rgb(61,113,28)" fill-opacity="1" />
<circle cx="82" cy="143" r="18" id="123" fill="rgb(217,158,130)" fill-opacity="1" />
<circle cx="199" cy="128" r="3" id="124" fill="rgb(42,48,52)" fill-opacity="1" />
<circle cx="118" cy="88" r="11" id="125" fill="rgb(1,0,0)" fill-opacity="1" />
<circle cx="169" cy="181" r="5" id="126" fill="rgb(225,232,237)" fill-opacity="1" />
<circle cx="144" cy="161" r="25" id="127" fill="rgb(225,232,237)" fill-opacity="1" />
<circle cx="66" cy="82" r="11" id="128" fill="rgb(61,113,28)" fill-opacity="1" />
<circle cx="95" cy="122" r="10" id="129" fill="rgb(217,158,130)" fill-opacity="1" />
<circle cx="64" cy="65" r="4" id="130" fill="rgb(254,204,77)" fill-opacity="1" />
<circle cx="68" cy="55" r="7" id="131" fill="rgb(64,115,29)" fill-opacity="1" />
<circle cx="214" cy="119" r="2" id="132" fill="rgb(192,139,114)" fill-opacity="1" />
<circle cx="50" cy="122" r="7" id="133" fill="rgb(244,246,247)" fill-opacity="1" />
<circle cx="50" cy="177" r="3" id="134" fill="rgb(186,101,75)" fill-opacity="1" />
<circle cx="20" cy="63" r="7" id="135" fill="rgb(253,202,75)" fill-opacity="1" />
<circle cx="8" cy="153" r="27" id="136" fill="rgb(0,0,0)" fill-opacity="1" />
<circle cx="86" cy="97" r="7" id="137" fill="rgb(0,0,0)" fill-opacity="1" />
<circle cx="48" cy="59" r="4" id="138" fill="rgb(255,205,77)" fill-opacity="1" />
<circle cx="109" cy="168" r="19" id="139" fill="rgb(225,231,235)" fill-opacity="1" />
<circle cx="19" cy="171" r="20" id="140" fill="rgb(0,0,0)" fill-opacity="1" />
<circle cx="100" cy="143" r="9" id="141" fill="rgb(217,158,130)" fill-opacity="1" />
<circle cx="201" cy="146" r="3" id="142" fill="rgb(226,233,238)" fill-opacity="1" />
<circle cx="47" cy="164" r="8" id="143" fill="rgb(193,106,80)" fill-opacity="1" />
<circle cx="44" cy="50" r="1" id="144" fill="rgb(244,199,73)" fill-opacity="1" />
<circle cx="0" cy="30" r="28" id="145" fill="rgb(0,0,0)" fill-opacity="1" />
<circle cx="174" cy="137" r="5" id="146" fill="rgb(225,232,237)" fill-opacity="1" />
<circle cx="41" cy="138" r="7" id="147" fill="rgb(192,104,78)" fill-opacity="1" />
<circle cx="38" cy="131" r="2" id="148" fill="rgb(221,183,171)" fill-opacity="1" />
<circle cx="69" cy="181" r="5" id="149" fill="rgb(225,227,230)" fill-opacity="1" />
<circle cx="83" cy="60" r="15" id="150" fill="rgb(62,114,29)" fill-opacity="1" />
<circle cx="187" cy="131" r="3" id="151" fill="rgb(42,48,52)" fill-opacity="1" />
<circle cx="60" cy="181" r="4" id="152" fill="rgb(217,158,130)" fill-opacity="1" />
<circle cx="90" cy="37" r="16" id="153" fill="rgb(61,113,28)" fill-opacity="1" />
<circle cx="99" cy="125" r="15" id="154" fill="rgb(217,158,130)" fill-opacity="1" />
<circle cx="93" cy="140" r="15" id="155" fill="rgb(217,158,130)" fill-opacity="1" />
<circle cx="27" cy="63" r="6" id="156" fill="rgb(254,203,76)" fill-opacity="1" />
<circle cx="150" cy="118" r="15" id="157" fill="rgb(217,158,130)" fill-opacity="1" />
<circle cx="45" cy="64" r="8" id="158" fill="rgb(255,204,77)" fill-opacity="1" />
<circle cx="190" cy="116" r="10" id="159" fill="rgb(217,158,130)" fill-opacity="1" />
<circle cx="161" cy="174" r="13" id="160" fill="rgb(225,232,237)" fill-opacity="1" />
<circle cx="51" cy="42" r="8" id="161" fill="rgb(60,110,29)" fill-opacity="1" />
<circle cx="211" cy="122" r="3" id="162" fill="rgb(215,157,129)" fill-opacity="1" />
<circle cx="48" cy="89" r="5" id="163" fill="rgb(0,0,0)" fill-opacity="1" />
<circle cx="188" cy="203" r="22" id="164" fill="rgb(0,0,0)" fill-opacity="1" />
<circle cx="190" cy="140" r="5" id="165" fill="rgb(223,230,235)" fill-opacity="1" />
<circle cx="221" cy="125" r="1" id="166" fill="rgb(174,128,106)" fill-opacity="1" />
<circle cx="199" cy="160" r="5" id="167" fill="rgb(221,228,233)" fill-opacity="1" />
<circle cx="182" cy="201" r="18" id="168" fill="rgb(0,0,0)" fill-opacity="1" />
<circle cx="224" cy="176" r="25" id="169" fill="rgb(0,0,0)" fill-opacity="1" />
<circle cx="27" cy="15" r="26" id="170" fill="rgb(0,0,0)" fill-opacity="1" />
<circle cx="211" cy="148" r="5" id="171" fill="rgb(35,40,44)" fill-opacity="1" />
<circle cx="73" cy="207" r="20" id="172" fill="rgb(0,0,0)" fill-opacity="1" />
<circle cx="44" cy="123" r="6" id="173" fill="rgb(244,247,249)" fill-opacity="1" />
<circle cx="136" cy="113" r="18" id="174" fill="rgb(217,158,130)" fill-opacity="1" />
<circle cx="224" cy="123" r="3" id="175" fill="rgb(8,6,6)" fill-opacity="1" />
<circle cx="72" cy="24" r="7" id="176" fill="rgb(61,113,28)" fill-opacity="1" />
<circle cx="126" cy="66" r="25" id="177" fill="rgb(0,0,0)" fill-opacity="1" />
<circle cx="126" cy="222" r="35" id="178" fill="rgb(0,0,0)" fill-opacity="1" />
<circle cx="222" cy="131" r="4" id="179" fill="rgb(31,37,40)" fill-opacity="1" />
<circle cx="86" cy="26" r="8" id="180" fill="rgb(61,113,28)" fill-opacity="1" />
<circle cx="69" cy="96" r="11" id="181" fill="rgb(60,111,28)" fill-opacity="1" />
<circle cx="131" cy="155" r="15" id="182" fill="rgb(225,232,237)" fill-opacity="1" />
<circle cx="116" cy="93" r="7" id="183" fill="rgb(2,2,1)" fill-opacity="1" />
<circle cx="27" cy="124" r="10" id="184" fill="rgb(0,0,0)" fill-opacity="1" />
<circle cx="183" cy="170" r="9" id="185" fill="rgb(225,232,237)" fill-opacity="1" />
<circle cx="109" cy="195" r="8" id="186" fill="rgb(0,0,0)" fill-opacity="1" />
<circle cx="53" cy="139" r="10" id="187" fill="rgb(193,105,79)" fill-opacity="1" />
<circle cx="33" cy="107" r="10" id="188" fill="rgb(0,0,0)" fill-opacity="1" />
<circle cx="44" cy="139" r="9" id="189" fill="rgb(193,105,80)" fill-opacity="1" />
<circle cx="164" cy="131" r="1" id="190" fill="rgb(90,92,94)" fill-opacity="1" />
<circle cx="167" cy="153" r="22" id="191" fill="rgb(225,232,237)" fill-opacity="1" />
<circle cx="66" cy="127" r="4" id="192" fill="rgb(194,107,81)" fill-opacity="1" />
<circle cx="14" cy="54" r="1" id="193" fill="rgb(164,131,48)" fill-opacity="1" />
<circle cx="81" cy="161" r="3" id="194" fill="rgb(217,158,130)" fill-opacity="1" />
<circle cx="210" cy="158" r="5" id="195" fill="rgb(11,13,14)" fill-opacity="1" />
<circle cx="53" cy="76" r="3" id="196" fill="rgb(3,3,2)" fill-opacity="1" />
<circle cx="131" cy="119" r="19" id="197" fill="rgb(217,158,130)" fill-opacity="1" />
<circle cx="205" cy="119" r="6" id="198" fill="rgb(217,158,130)" fill-opacity="1" />
<circle cx="224" cy="159" r="14" id="199" fill="rgb(0,0,0)" fill-opacity="1" />
<circle cx="63" cy="99" r="11" id="200" fill="rgb(62,114,28)" fill-opacity="1" />
<circle cx="7" cy="90" r="23" id="201" fill="rgb(0,0,0)" fill-opacity="1" />
<circle cx="80" cy="72" r="12" id="202" fill="rgb(61,113,28)" fill-opacity="1" />
<circle cx="100" cy="41" r="8" id="203" fill="rgb(61,111,28)" fill-opacity="1" />
<circle cx="89" cy="99" r="11" id="204" fill="rgb(0,0,0)" fill-opacity="1" />
<circle cx="60" cy="76" r="5" id="205" fill="rgb(62,111,29)" fill-opacity="1" />
<circle cx="24" cy="116" r="15" id="206" fill="rgb(0,0,0)" fill-opacity="1" />
<circle cx="44" cy="201" r="20" id="207" fill="rgb(0,0,0)" fill-opacity="1" />
<circle cx="63" cy="38" r="7" id="208" fill="rgb(41,48,50)" fill-opacity="1" />
<circle cx="172" cy="130" r="2" id="209" fill="rgb(67,67,68)" fill-opacity="1" />
<circle cx="75" cy="188" r="1" id="210" fill="rgb(13,13,13)" fill-opacity="1" />
<circle cx="83" cy="0" r="17" id="211" fill="rgb(0,0,0)" fill-opacity="1" />
<circle cx="188" cy="128" r="1" id="212" fill="rgb(33,44,49)" fill-opacity="1" />
<circle cx="73" cy="91" r="8" id="213" fill="rgb(61,112,28)" fill-opacity="1" />
<circle cx="82" cy="181" r="5" id="214" fill="rgb(225,232,237)" fill-opacity="1" />
<circle cx="99" cy="101" r="6" id="215" fill="rgb(2,1,1)" fill-opacity="1" />
<circle cx="80" cy="122" r="6" id="216" fill="rgb(216,154,126)" fill-opacity="1" />
<circle cx="69" cy="115" r="6" id="217" fill="rgb(244,247,249)" fill-opacity="1" />
<circle cx="118" cy="163" r="17" id="218" fill="rgb(225,232,237)" fill-opacity="1" />
<circle cx="6" cy="66" r="6" id="219" fill="rgb(1,0,0)" fill-opacity="1" />
<circle cx="219" cy="97" r="19" id="220" fill="rgb(0,0,0)" fill-opacity="1" />
<circle cx="197" cy="134" r="4" id="221" fill="rgb(44,50,54)" fill-opacity="1" />
<circle cx="217" cy="123" r="3" id="222" fill="rgb(195,143,118)" fill-opacity="1" />
<circle cx="63" cy="176" r="4" id="223" fill="rgb(218,158,130)" fill-opacity="1" />
<circle cx="37" cy="133" r="2" id="224" fill="rgb(189,106,82)" fill-opacity="1" />
<circle cx="47" cy="82" r="8" id="225" fill="rgb(0,0,0)" fill-opacity="1" />
<circle cx="60" cy="166" r="7" id="226" fill="rgb(217,158,130)" fill-opacity="1" />
<circle cx="106" cy="218" r="31" id="227" fill="rgb(0,0,0)" fill-opacity="1" />
<circle cx="30" cy="67" r="6" id="228" fill="rgb(254,203,76)" fill-opacity="1" />
<circle cx="9" cy="23" r="31" id="229" fill="rgb(0,0,0)" fill-opacity="1" />
<circle cx="53" cy="102" r="5" id="230" fill="rgb(61,113,28)" fill-opacity="1" />
<circle cx="89" cy="203" r="16" id="231" fill="rgb(0,0,0)" fill-opacity="1" />
<circle cx="72" cy="122" r="2" id="232" fill="rgb(195,108,83)" fill-opacity="1" />
<circle cx="112" cy="78" r="18" id="233" fill="rgb(0,0,0)" fill-opacity="1" />
<circle cx="58" cy="57" r="1" id="234" fill="rgb(60,113,28)" fill-opacity="1" />
<circle cx="49" cy="44" r="7" id="235" fill="rgb(61,111,28)" fill-opacity="1" />
<circle cx="174" cy="125" r="3" id="236" fill="rgb(217,158,130)" fill-opacity="1" />
<circle cx="71" cy="219" r="32" id="237" fill="rgb(0,0,0)" fill-opacity="1" />
<circle cx="56" cy="49" r="6" id="238" fill="rgb(62,114,29)" fill-opacity="1" />
<circle cx="213" cy="133" r="8" id="239" fill="rgb(41,47,51)" fill-opacity="1" />
<circle cx="36" cy="51" r="6" id="240" fill="rgb(4,4,2)" fill-opacity="1" />
<circle cx="52" cy="60" r="3" id="241" fill="rgb(252,203,76)" fill-opacity="1" />
<circle cx="204" cy="148" r="1" id="242" fill="rgb(220,227,232)" fill-opacity="1" />
<circle cx="91" cy="165" r="6" id="243" fill="rgb(225,232,237)" fill-opacity="1" />
<circle cx="127" cy="35" r="20" id="244" fill="rgb(0,0,0)" fill-opacity="1" />
<circle cx="8" cy="141" r="26" id="245" fill="rgb(0,0,0)" fill-opacity="1" />
<circle cx="30" cy="39" r="13" id="246" fill="rgb(0,0,0)" fill-opacity="1" />
<circle cx="164" cy="64" r="30" id="247" fill="rgb(0,0,0)" fill-opacity="1" />
<circle cx="55" cy="69" r="3" id="248" fill="rgb(254,204,77)" fill-opacity="1" />
<circle cx="170" cy="207" r="21" id="249" fill="rgb(0,0,0)" fill-opacity="1" />
<circle cx="180" cy="110" r="11" id="250" fill="rgb(217,158,130)" fill-opacity="1" />
<circle cx="69" cy="126" r="4" id="251" fill="rgb(196,111,85)" fill-opacity="1" />
<circle cx="84" cy="132" r="14" id="252" fill="rgb(217,158,130)" fill-opacity="1" />
<circle cx="75" cy="69" r="8" id="253" fill="rgb(62,114,29)" fill-opacity="1" />
<circle cx="210" cy="141" r="7" id="254" fill="rgb(40,46,50)" fill-opacity="1" />
<circle cx="127" cy="131" r="9" id="255" fill="rgb(217,158,130)" fill-opacity="1" />
<circle cx="96" cy="38" r="11" id="256" fill="rgb(61,113,28)" fill-opacity="1" />
<circle cx="187" cy="153" r="18" id="257" fill="rgb(225,232,237)" fill-opacity="1" />
<circle cx="5" cy="55" r="6" id="258" fill="rgb(0,0,0)" fill-opacity="1" />
<circle cx="220" cy="120" r="2" id="259" fill="rgb(7,7,7)" fill-opacity="1" />
<circle cx="134" cy="68" r="27" id="260" fill="rgb(0,0,0)" fill-opacity="1" />
<circle cx="46" cy="171" r="4" id="261" fill="rgb(186,101,76)" fill-opacity="1" />
<circle cx="44" cy="55" r="2" id="262" fill="rgb(255,204,77)" fill-opacity="1" />
<circle cx="79" cy="176" r="8" id="263" fill="rgb(225,232,237)" fill-opacity="1" />
<circle cx="64" cy="157" r="8" id="264" fill="rgb(217,158,130)" fill-opacity="1" />
<circle cx="123" cy="193" r="6" id="265" fill="rgb(0,0,0)" fill-opacity="1" />
<circle cx="78" cy="159" r="7" id="266" fill="rgb(217,159,131)" fill-opacity="1" />
<circle cx="59" cy="27" r="4" id="267" fill="rgb(62,114,29)" fill-opacity="1" />
<circle cx="38" cy="154" r="3" id="268" fill="rgb(186,101,75)" fill-opacity="1" />
<circle cx="71" cy="176" r="3" id="269" fill="rgb(225,228,231)" fill-opacity="1" />
<circle cx="141" cy="192" r="5" id="270" fill="rgb(0,0,0)" fill-opacity="1" />
<circle cx="60" cy="66" r="5" id="271" fill="rgb(253,203,76)" fill-opacity="1" />
<circle cx="170" cy="114" r="15" id="272" fill="rgb(217,158,130)" fill-opacity="1" />
<circle cx="40" cy="119" r="1" id="273" fill="rgb(201,205,203)" fill-opacity="1" />
<circle cx="27" cy="114" r="13" id="274" fill="rgb(0,0,0)" fill-opacity="1" />
<circle cx="109" cy="96" r="5" id="275" fill="rgb(0,0,0)" fill-opacity="1" />
<circle cx="167" cy="129" r="2" id="276" fill="rgb(166,126,107)" fill-opacity="1" />
<circle cx="165" cy="116" r="14" id="277" fill="rgb(217,158,130)" fill-opacity="1" />
<circle cx="74" cy="17" r="1" id="278" fill="rgb(56,72,44)" fill-opacity="1" />
<circle cx="51" cy="119" r="4" id="279" fill="rgb(244,248,249)" fill-opacity="1" />
<circle cx="217" cy="128" r="3" id="280" fill="rgb(42,48,52)" fill-opacity="1" />
<circle cx="69" cy="53" r="8" id="281" fill="rgb(62,114,29)" fill-opacity="1" />
<circle cx="81" cy="110" r="2" id="282" fill="rgb(5,5,5)" fill-opacity="1" />
<circle cx="78" cy="118" r="2" id="283" fill="rgb(211,146,119)" fill-opacity="1" />
<circle cx="56" cy="66" r="6" id="284" fill="rgb(255,204,77)" fill-opacity="1" />
<circle cx="70" cy="99" r="8" id="285" fill="rgb(61,113,28)" fill-opacity="1" />
<circle cx="42" cy="127" r="3" id="286" fill="rgb(246,249,251)" fill-opacity="1" />
<circle cx="100" cy="106" r="1" id="287" fill="rgb(31,24,20)" fill-opacity="1" />
<circle cx="107" cy="76" r="13" id="288" fill="rgb(0,0,0)" fill-opacity="1" />
<circle cx="50" cy="139" r="10" id="289" fill="rgb(193,105,79)" fill-opacity="1" />
<circle cx="38" cy="129" r="1" id="290" fill="rgb(246,250,251)" fill-opacity="1" />
<circle cx="49" cy="174" r="4" id="291" fill="rgb(193,105,79)" fill-opacity="1" />
<circle cx="73" cy="109" r="2" id="292" fill="rgb(246,249,250)" fill-opacity="1" />
<circle cx="98" cy="82" r="9" id="293" fill="rgb(0,0,0)" fill-opacity="1" />
<circle cx="167" cy="112" r="17" id="294" fill="rgb(217,158,130)" fill-opacity="1" />
<circle cx="23" cy="59" r="3" id="295" fill="rgb(249,199,75)" fill-opacity="1" />
<circle cx="45" cy="60" r="7" id="296" fill="rgb(255,204,76)" fill-opacity="1" />
<circle cx="84" cy="104" r="7" id="297" fill="rgb(2,2,2)" fill-opacity="1" />
<circle cx="181" cy="74" r="23" id="298" fill="rgb(0,0,0)" fill-opacity="1" />
<circle cx="67" cy="90" r="13" id="299" fill="rgb(61,114,28)" fill-opacity="1" />
<circle cx="136" cy="60" r="32" id="300" fill="rgb(0,0,0)" fill-opacity="1" />
<circle cx="59" cy="132" r="6" id="301" fill="rgb(193,105,79)" fill-opacity="1" />
<circle cx="224" cy="143" r="5" id="302" fill="rgb(0,0,0)" fill-opacity="1" />
<circle cx="65" cy="171" r="5" id="303" fill="rgb(217,158,130)" fill-opacity="1" />
<circle cx="59" cy="109" r="3" id="304" fill="rgb(60,113,26)" fill-opacity="1" />
<circle cx="76" cy="107" r="1" id="305" fill="rgb(245,248,250)" fill-opacity="1" />
<circle cx="53" cy="32" r="5" id="306" fill="rgb(61,112,28)" fill-opacity="1" />
<circle cx="42" cy="116" r="1" id="307" fill="rgb(64,117,28)" fill-opacity="1" />
<circle cx="45" cy="155" r="9" id="308" fill="rgb(193,105,79)" fill-opacity="1" />
<circle cx="37" cy="221" r="41" id="309" fill="rgb(0,0,0)" fill-opacity="1" />
<circle cx="8" cy="123" r="28" id="310" fill="rgb(0,0,0)" fill-opacity="1" />
<circle cx="12" cy="169" r="26" id="311" fill="rgb(0,0,0)" fill-opacity="1" />
<circle cx="99" cy="189" r="2" id="312" fill="rgb(5,5,5)" fill-opacity="1" />
<circle cx="207" cy="105" r="6" id="313" fill="rgb(2,1,1)" fill-opacity="1" />
<circle cx="91" cy="140" r="16" id="314" fill="rgb(217,158,130)" fill-opacity="1" />
<circle cx="181" cy="124" r="3" id="315" fill="rgb(217,158,130)" fill-opacity="1" />
<circle cx="33" cy="54" r="3" id="316" fill="rgb(3,3,2)" fill-opacity="1" />
<circle cx="42" cy="69" r="4" id="317" fill="rgb(253,202,76)" fill-opacity="1" />
<circle cx="64" cy="24" r="5" id="318" fill="rgb(61,112,28)" fill-opacity="1" />
<circle cx="35" cy="153" r="1" id="319" fill="rgb(94,63,54)" fill-opacity="1" />
<circle cx="76" cy="109" r="2" id="320" fill="rgb(241,244,246)" fill-opacity="1" />
<circle cx="169" cy="89" r="6" id="321" fill="rgb(1,0,0)" fill-opacity="1" />
<circle cx="121" cy="192" r="5" id="322" fill="rgb(0,0,0)" fill-opacity="1" />
<circle cx="48" cy="41" r="5" id="323" fill="rgb(60,111,27)" fill-opacity="1" />
<circle cx="63" cy="64" r="4" id="324" fill="rgb(255,204,77)" fill-opacity="1" />
<circle cx="60" cy="60" r="1" id="325" fill="rgb(241,198,74)" fill-opacity="1" />
<circle cx="27" cy="156" r="8" id="326" fill="rgb(0,0,0)" fill-opacity="1" />
<circle cx="91" cy="55" r="12" id="327" fill="rgb(61,113,28)" fill-opacity="1" />
<circle cx="101" cy="136" r="15" id="328" fill="rgb(217,158,130)" fill-opacity="1" />
<circle cx="171" cy="40" r="55" id="329" fill="rgb(0,0,0)" fill-opacity="1" />
<circle cx="85" cy="115" r="1" id="330" fill="rgb(104,77,65)" fill-opacity="1" />
<circle cx="91" cy="88" r="7" id="331" fill="rgb(0,0,0)" fill-opacity="1" />
<circle cx="120" cy="119" r="19" id="332" fill="rgb(217,158,130)" fill-opacity="1" />
<circle cx="81" cy="27" r="10" id="333" fill="rgb(61,113,28)" fill-opacity="1" />
<circle cx="90" cy="133" r="18" id="334" fill="rgb(217,158,130)" fill-opacity="1" />
<circle cx="199" cy="121" r="4" id="335" fill="rgb(217,158,130)" fill-opacity="1" />
<circle cx="178" cy="130" r="2" id="336" fill="rgb(44,50,54)" fill-opacity="1" />
<circle cx="85" cy="108" r="7" id="337" fill="rgb(4,3,3)" fill-opacity="1" />
<circle cx="201" cy="138" r="2" id="338" fill="rgb(37,44,48)" fill-opacity="1" />
<circle cx="49" cy="104" r="3" id="339" fill="rgb(58,107,27)" fill-opacity="1" />
<circle cx="70" cy="157" r="13" id="340" fill="rgb(217,158,130)" fill-opacity="1" />
<circle cx="52" cy="74" r="1" id="341" fill="rgb(15,14,13)" fill-opacity="1" />
<circle cx="161" cy="205" r="18" id="342" fill="rgb(0,0,0)" fill-opacity="1" />
<circle cx="148" cy="93" r="1" id="343" fill="rgb(96,76,67)" fill-opacity="1" />
<circle cx="57" cy="56" r="2" id="344" fill="rgb(65,115,29)" fill-opacity="1" />
<circle cx="60" cy="174" r="7" id="345" fill="rgb(217,158,130)" fill-opacity="1" />
<circle cx="74" cy="190" r="3" id="346" fill="rgb(2,2,2)" fill-opacity="1" />
<circle cx="53" cy="181" r="1" id="347" fill="rgb(188,100,74)" fill-opacity="1" />
<circle cx="192" cy="131" r="4" id="348" fill="rgb(40,46,50)" fill-opacity="1" />
<circle cx="217" cy="124" r="1" id="349" fill="rgb(216,157,129)" fill-opacity="1" />
<circle cx="35" cy="57" r="1" id="350" fill="rgb(114,95,49)" fill-opacity="1" />
<circle cx="35" cy="63" r="5" id="351" fill="rgb(255,204,77)" fill-opacity="1" />
<circle cx="73" cy="113" r="5" id="352" fill="rgb(246,249,251)" fill-opacity="1" />
<circle cx="146" cy="98" r="5" id="353" fill="rgb(215,156,128)" fill-opacity="1" />
<circle cx="80" cy="184" r="2" id="354" fill="rgb(225,232,237)" fill-opacity="1" />
<circle cx="98" cy="5" r="16" id="355" fill="rgb(0,0,0)" fill-opacity="1" />
<circle cx="139" cy="62" r="32" id="356" fill="rgb(0,0,0)" fill-opacity="1" />
<circle cx="192" cy="115" r="10" id="357" fill="rgb(217,158,130)" fill-opacity="1" />
<circle cx="32" cy="52" r="5" id="358" fill="rgb(1,1,0)" fill-opacity="1" />
<circle cx="26" cy="43" r="13" id="359" fill="rgb(0,0,0)" fill-opacity="1" />
<circle cx="38" cy="151" r="3" id="360" fill="rgb(190,103,77)" fill-opacity="1" />
<circle cx="83" cy="65" r="13" id="361" fill="rgb(61,114,28)" fill-opacity="1" />
<circle cx="113" cy="80" r="20" id="362" fill="rgb(0,0,0)" fill-opacity="1" />
<circle cx="214" cy="115" r="2" id="363" fill="rgb(12,10,9)" fill-opacity="1" />
<circle cx="224" cy="167" r="18" id="364" fill="rgb(0,0,0)" fill-opacity="1" />
<circle cx="44" cy="129" r="1" id="365" fill="rgb(241,242,243)" fill-opacity="1" />
<circle cx="44" cy="53" r="2" id="366" fill="rgb(253,202,75)" fill-opacity="1" />
<circle cx="212" cy="151" r="1" id="367" fill="rgb(35,40,43)" fill-opacity="1" />
<circle cx="118" cy="170" r="16" id="368" fill="rgb(225,232,237)" fill-opacity="1" />
<circle cx="70" cy="216" r="29" id="369" fill="rgb(0,0,0)" fill-opacity="1" />
<circle cx="50" cy="113" r="2" id="370" fill="rgb(66,117,32)" fill-opacity="1" />
<circle cx="138" cy="94" r="1" id="371" fill="rgb(95,76,66)" fill-opacity="1" />
<circle cx="67" cy="204" r="17" id="372" fill="rgb(0,0,0)" fill-opacity="1" />
<circle cx="88" cy="42" r="16" id="373" fill="rgb(62,114,29)" fill-opacity="1" />
<circle cx="75" cy="107" r="1" id="374" fill="rgb(249,251,252)" fill-opacity="1" />
<circle cx="15" cy="57" r="3" id="375" fill="rgb(253,202,75)" fill-opacity="1" />
<circle cx="30" cy="80" r="7" id="376" fill="rgb(0,0,0)" fill-opacity="1" />
<circle cx="72" cy="191" r="4" id="377" fill="rgb(1,1,1)" fill-opacity="1" />
<circle cx="43" cy="123" r="5" id="378" fill="rgb(244,247,249)" fill-opacity="1" />
<circle cx="142" cy="105" r="11" id="379" fill="rgb(217,158,130)" fill-opacity="1" />
<circle cx="85" cy="175" r="11" id="380" fill="rgb(225,232,237)" fill-opacity="1" />
<circle cx="101" cy="170" r="15" id="381" fill="rgb(225,232,237)" fill-opacity="1" />
<circle cx="76" cy="77" r="12" id="382" fill="rgb(61,113,28)" fill-opacity="1" />
<circle cx="29" cy="198" r="27" id="383" fill="rgb(0,0,0)" fill-opacity="1" />
<circle cx="58" cy="117" r="4" id="384" fill="rgb(244,248,249)" fill-opacity="1" />
<circle cx="214" cy="121" r="3" id="385" fill="rgb(215,156,128)" fill-opacity="1" />
<circle cx="51" cy="180" r="1" id="386" fill="rgb(183,95,69)" fill-opacity="1" />
<circle cx="23" cy="56" r="1" id="387" fill="rgb(112,93,50)" fill-opacity="1" />
<circle cx="45" cy="123" r="6" id="388" fill="rgb(246,249,251)" fill-opacity="1" />
<circle cx="63" cy="118" r="6" id="389" fill="rgb(246,248,250)" fill-opacity="1" />
<circle cx="21" cy="61" r="5" id="390" fill="rgb(254,203,76)" fill-opacity="1" />
<circle cx="138" cy="68" r="25" id="391" fill="rgb(0,0,0)" fill-opacity="1" />
<circle cx="59" cy="117" r="4" id="392" fill="rgb(246,249,251)" fill-opacity="1" />
<circle cx="54" cy="105" r="8" id="393" fill="rgb(61,112,28)" fill-opacity="1" />
<circle cx="197" cy="115" r="8" id="394" fill="rgb(217,158,130)" fill-opacity="1" />
<circle cx="75" cy="101" r="4" id="395" fill="rgb(59,105,29)" fill-opacity="1" />
<circle cx="209" cy="155" r="3" id="396" fill="rgb(27,32,35)" fill-opacity="1" />
<circle cx="89" cy="101" r="10" id="397" fill="rgb(0,0,0)" fill-opacity="1" />
<circle cx="99" cy="100" r="6" id="398" fill="rgb(0,0,0)" fill-opacity="1" />
<circle cx="69" cy="212" r="25" id="399" fill="rgb(0,0,0)" fill-opacity="1" />
<circle cx="12" cy="191" r="36" id="400" fill="rgb(0,0,0)" fill-opacity="1" />
<circle cx="163" cy="191" r="4" id="401" fill="rgb(1,1,1)" fill-opacity="1" />
<circle cx="65" cy="88" r="11" id="402" fill="rgb(62,113,29)" fill-opacity="1" />
<circle cx="224" cy="134" r="1" id="403" fill="rgb(0,0,0)" fill-opacity="1" />
<circle cx="210" cy="120" r="4" id="404" fill="rgb(217,158,130)" fill-opacity="1" />
<circle cx="59" cy="183" r="2" id="405" fill="rgb(215,156,128)" fill-opacity="1" />
<circle cx="203" cy="145" r="1" id="406" fill="rgb(212,219,224)" fill-opacity="1" />
<circle cx="169" cy="130" r="1" id="407" fill="rgb(52,57,58)" fill-opacity="1" />
<circle cx="6" cy="70" r="8" id="408" fill="rgb(0,0,0)" fill-opacity="1" />
<circle cx="56" cy="120" r="6" id="409" fill="rgb(246,249,251)" fill-opacity="1" />
<circle cx="89" cy="60" r="11" id="410" fill="rgb(61,113,28)" fill-opacity="1" />
<circle cx="49" cy="31" r="2" id="411" fill="rgb(55,98,27)" fill-opacity="1" />
<circle cx="120" cy="215" r="28" id="412" fill="rgb(0,0,0)" fill-opacity="1" />
<circle cx="121" cy="127" r="15" id="413" fill="rgb(217,158,130)" fill-opacity="1" />
<circle cx="23" cy="52" r="3" id="414" fill="rgb(0,0,0)" fill-opacity="1" />
<circle cx="208" cy="74" r="33" id="415" fill="rgb(0,0,0)" fill-opacity="1" />
<circle cx="58" cy="101" r="9" id="416" fill="rgb(61,113,28)" fill-opacity="1" />
<circle cx="219" cy="124" r="1" id="417" fill="rgb(219,159,131)" fill-opacity="1" />
<circle cx="51" cy="78" r="5" id="418" fill="rgb(1,2,1)" fill-opacity="1" />
<circle cx="55" cy="137" r="9" id="419" fill="rgb(193,105,79)" fill-opacity="1" />
<circle cx="71" cy="12" r="5" id="420" fill="rgb(0,0,0)" fill-opacity="1" />
<circle cx="44" cy="51" r="1" id="421" fill="rgb(255,206,76)" fill-opacity="1" />
<circle cx="15" cy="60" r="4" id="422" fill="rgb(254,203,76)" fill-opacity="1" />
<circle cx="161" cy="114" r="17" id="423" fill="rgb(217,158,130)" fill-opacity="1" />
<circle cx="219" cy="166" r="14" id="424" fill="rgb(0,0,0)" fill-opacity="1" />
<circle cx="68" cy="191" r="4" id="425" fill="rgb(1,1,1)" fill-opacity="1" />
<circle cx="38" cy="147" r="4" id="426" fill="rgb(190,103,77)" fill-opacity="1" />
<circle cx="83" cy="183" r="3" id="427" fill="rgb(225,232,237)" fill-opacity="1" />
<circle cx="40" cy="128" r="3" id="428" fill="rgb(245,247,248)" fill-opacity="1" />
<circle cx="75" cy="158" r="9" id="429" fill="rgb(217,158,130)" fill-opacity="1" />
<circle cx="75" cy="120" r="1" id="430" fill="rgb(196,110,82)" fill-opacity="1" />
<circle cx="75" cy="174" r="4" id="431" fill="rgb(225,232,237)" fill-opacity="1" />
<circle cx="77" cy="114" r="2" id="432" fill="rgb(246,250,252)" fill-opacity="1" />
<circle cx="42" cy="73" r="1" id="433" fill="rgb(134,106,34)" fill-opacity="1" />
<circle cx="161" cy="94" r="1" id="434" fill="rgb(106,77,64)" fill-opacity="1" />
<circle cx="48" cy="111" r="4" id="435" fill="rgb(61,114,28)" fill-opacity="1" />
<circle cx="166" cy="130" r="1" id="436" fill="rgb(113,91,82)" fill-opacity="1" />
<circle cx="41" cy="51" r="1" id="437" fill="rgb(19,17,12)" fill-opacity="1" />
<circle cx="143" cy="117" r="18" id="438" fill="rgb(217,158,130)" fill-opacity="1" />
<circle cx="152" cy="92" r="1" id="439" fill="rgb(17,15,14)" fill-opacity="1" />
<circle cx="44" cy="66" r="7" id="440" fill="rgb(255,204,77)" fill-opacity="1" />
<circle cx="41" cy="116" r="1" id="441" fill="rgb(54,103,20)" fill-opacity="1" />
<circle cx="124" cy="85" r="12" id="442" fill="rgb(0,0,0)" fill-opacity="1" />
<circle cx="37" cy="117" r="3" id="443" fill="rgb(6,9,6)" fill-opacity="1" />
<circle cx="56" cy="57" r="1" id="444" fill="rgb(73,119,31)" fill-opacity="1" />
<circle cx="70" cy="181" r="5" id="445" fill="rgb(225,231,236)" fill-opacity="1" />
<circle cx="56" cy="78" r="1" id="446" fill="rgb(54,75,40)" fill-opacity="1" />
<circle cx="50" cy="38" r="6" id="447" fill="rgb(61,112,28)" fill-opacity="1" />
<circle cx="171" cy="65" r="30" id="448" fill="rgb(0,0,0)" fill-opacity="1" />
<circle cx="158" cy="110" r="16" id="449" fill="rgb(217,158,130)" fill-opacity="1" />
<circle cx="211" cy="141" r="7" id="450" fill="rgb(40,46,50)" fill-opacity="1" />
<circle cx="48" cy="3" r="21" id="451" fill="rgb(0,0,0)" fill-opacity="1" />
<circle cx="133" cy="182" r="4" id="452" fill="rgb(225,232,237)" fill-opacity="1" />
<circle cx="37" cy="146" r="3" id="453" fill="rgb(189,102,77)" fill-opacity="1" />
<circle cx="26" cy="61" r="4" id="454" fill="rgb(253,202,76)" fill-opacity="1" />
<circle cx="42" cy="85" r="11" id="455" fill="rgb(0,0,0)" fill-opacity="1" />
<circle cx="154" cy="81" r="12" id="456" fill="rgb(0,0,0)" fill-opacity="1" />
<circle cx="81" cy="182" r="4" id="457" fill="rgb(225,232,237)" fill-opacity="1" />
<circle cx="57" cy="98" r="7" id="458" fill="rgb(61,113,28)" fill-opacity="1" />
<circle cx="46" cy="128" r="1" id="459" fill="rgb(246,250,251)" fill-opacity="1" />
<circle cx="108" cy="102" r="1" id="460" fill="rgb(28,22,19)" fill-opacity="1" />
<circle cx="86" cy="97" r="7" id="461" fill="rgb(0,0,0)" fill-opacity="1" />
<circle cx="142" cy="144" r="8" id="462" fill="rgb(225,232,237)" fill-opacity="1" />
<circle cx="33" cy="73" r="1" id="463" fill="rgb(126,102,43)" fill-opacity="1" />
<circle cx="122" cy="217" r="30" id="464" fill="rgb(0,0,0)" fill-opacity="1" />
<circle cx="62" cy="129" r="4" id="465" fill="rgb(193,105,79)" fill-opacity="1" />
<circle cx="68" cy="36" r="4" id="466" fill="rgb(41,46,51)" fill-opacity="1" />
<circle cx="33" cy="75" r="1" id="467" fill="rgb(0,0,0)" fill-opacity="1" />
<circle cx="117" cy="174" r="12" id="468" fill="rgb(225,232,237)" fill-opacity="1" />
<circle cx="44" cy="125" r="5" id="469" fill="rgb(245,248,250)" fill-opacity="1" />
<circle cx="24" cy="66" r="5" id="470" fill="rgb(255,204,77)" fill-opacity="1" />
<circle cx="153" cy="72" r="21" id="471" fill="rgb(0,0,0)" fill-opacity="1" />
<circle cx="224" cy="130" r="1" id="472" fill="rgb(9,12,14)" fill-opacity="1" />
<circle cx="180" cy="94" r="4" id="473" fill="rgb(2,2,2)" fill-opacity="1" />
<circle cx="166" cy="128" r="1" id="474" fill="rgb(219,159,131)" fill-opacity="1" />
<circle cx="116" cy="171" r="15" id="475" fill="rgb(225,232,237)" fill-opacity="1" />
<circle cx="36" cy="67" r="6" id="476" fill="rgb(254,203,76)" fill-opacity="1" />
<circle cx="82" cy="120" r="5" id="477" fill="rgb(217,157,129)" fill-opacity="1" />
<circle cx="36" cy="131" r="1" id="478" fill="rgb(180,153,145)" fill-opacity="1" />
<circle cx="36" cy="73" r="1" id="479" fill="rgb(134,106,35)" fill-opacity="1" />
<circle cx="36" cy="80" r="6" id="480" fill="rgb(0,0,0)" fill-opacity="1" />
<circle cx="52" cy="67" r="5" id="481" fill="rgb(255,204,77)" fill-opacity="1" />
<circle cx="171" cy="130" r="1" id="482" fill="rgb(44,48,50)" fill-opacity="1" />
<circle cx="11" cy="124" r="25" id="483" fill="rgb(0,0,0)" fill-opacity="1" />
<circle cx="63" cy="20" r="1" id="484" fill="rgb(47,90,19)" fill-opacity="1" />
<circle cx="38" cy="68" r="5" id="485" fill="rgb(255,204,76)" fill-opacity="1" />
<circle cx="211" cy="133" r="8" id="486" fill="rgb(41,47,51)" fill-opacity="1" />
<circle cx="71" cy="109" r="1" id="487" fill="rgb(243,246,246)" fill-opacity="1" />
<circle cx="79" cy="103" r="1" id="488" fill="rgb(5,5,5)" fill-opacity="1" />
<circle cx="49" cy="169" r="4" id="489" fill="rgb(194,106,80)" fill-opacity="1" />
<circle cx="222" cy="126" r="1" id="490" fill="rgb(89,74,68)" fill-opacity="1" />
<circle cx="36" cy="133" r="1" id="491" fill="rgb(177,94,69)" fill-opacity="1" />
<circle cx="86" cy="158" r="3" id="492" fill="rgb(218,159,131)" fill-opacity="1" />
<circle cx="42" cy="148" r="8" id="493" fill="rgb(192,104,78)" fill-opacity="1" />
<circle cx="28" cy="57" r="1" id="494" fill="rgb(123,100,45)" fill-opacity="1" />
<circle cx="207" cy="138" r="6" id="495" fill="rgb(40,46,50)" fill-opacity="1" />
<circle cx="167" cy="89" r="6" id="496" fill="rgb(2,2,2)" fill-opacity="1" />
<circle cx="172" cy="85" r="11" id="497" fill="rgb(1,0,0)" fill-opacity="1" />
<circle cx="17" cy="61" r="6" id="498" fill="rgb(253,202,75)" fill-opacity="1" />
<circle cx="141" cy="94" r="1" id="499" fill="rgb(106,77,64)" fill-opacity="1" />
<circle cx="17" cy="115" r="22" id="500" fill="rgb(0,0,0)" fill-opacity="1" />
<circle cx="77" cy="28" r="8" id="501" fill="rgb(62,114,29)" fill-opacity="1" />
<circle cx="198" cy="167" r="1" id="502" fill="rgb(207,213,217)" fill-opacity="1" />
<circle cx="65" cy="178" r="1" id="503" fill="rgb(219,163,136)" fill-opacity="1" />
<circle cx="141" cy="79" r="14" id="504" fill="rgb(0,0,0)" fill-opacity="1" />
<circle cx="150" cy="79" r="14" id="505" fill="rgb(0,0,0)" fill-opacity="1" />
<circle cx="98" cy="24" r="1" id="506" fill="rgb(48,83,28)" fill-opacity="1" />
<circle cx="39" cy="117" r="1" id="507" fill="rgb(24,42,23)" fill-opacity="1" />
</svg>